<!DOCTYPE svg PUBLIC "-//W3C//DTD SVG 1.1//EN" "http://www.w3.org/Graphics/SVG/1.1/DTD/svg11.dtd">
<svg width="800px" height="800px" viewBox="0 0 24 24" fill="none" xmlns="http://www.w3.org/2000/svg">
<g id="SVGRepo_iconCarrier"> <path d="M12 3C8.134 3 5 4.343 5 6C5 7.657 8.134 9 12 9C15.866 9 19 7.657 19 6C19 4.343 15.866 3 12 3Z" stroke="#f5a97f" stroke-width="1.5" stroke-linecap="round" stroke-linejoin="round"/> <path d="M5 6V12C5 13.657 8.134 15 12 15C15.866 15 19 13.657 19 12V6" stroke="#f5a97f" stroke-width="1.5" stroke-linecap="round" stroke-linejoin="round"/> <path d="M5 12V18C5 19.657 8.134 21 12 21C15.866 21 19 19.657 19 18V12" stroke="#f5a97f" stroke-width="1.5" stroke-linecap="round" stroke-linejoin="round"/> </g>
</svg>
